<svg xmlns="http://www.w3.org/2000/svg" width="200" height="50" viewBox="0 0 150 37.5"><defs><clipPath id="b"><path d="M.2.5H17V27H.2Zm0 0"/></clipPath><clipPath id="c"><path d="M23 2h16.75v26.684H23Zm0 0"/></clipPath><clipPath id="a"><path d="M0 0h40v29H0z"/></clipPath></defs><g clip-path="url(#a)" transform="translate(6 4)"><g clip-path="url(#b)"><path fill="#8258d5" d="M14.227.535.41 24.453l3.32 1.918L16.438 4.363Zm0 0"/></g><path fill="#8258d5" d="m24.723 26.371 3.312-1.918-4.008-6.941h-9.703l-2.203 3.824h9.695Zm0 0"/><g clip-path="url(#c)"><path fill="#8258d5" d="M25.855 28.469 39.672 4.55l-3.32-1.918L23.648 24.64Zm0 0"/></g><path fill="#8258d5" d="M15.36 2.633 12.046 4.55l4.012 6.941h9.699l2.203-3.82H18.27Zm0 0"/></g><path fill="#8258d5" d="M61.093 20.001h-3.297l-.594 1.688h-1.047l2.735-7.516h1.14l2.719 7.516h-1.047Zm-.282-.797-1.359-3.812-1.375 3.812ZM68.04 20.892h2.64v.797h-3.64v-7.563h1ZM81.08 14.126l-2.843 7.563h-1.14l-2.86-7.563h1.062l2.375 6.516 2.375-6.516ZM86.268 14.939v2.515h2.75v.813h-2.75v2.61h3.078v.812h-4.078v-7.563h4.078v.813ZM93.578 17.907q-.002-1.106.5-1.984a3.63 3.63 0 0 1 1.36-1.39q.856-.5 1.906-.5 1.23.001 2.156.593.92.598 1.36 1.688h-1.188a2.36 2.36 0 0 0-.906-1.032q-.597-.375-1.422-.375-.785 0-1.422.375a2.56 2.56 0 0 0-.984 1.032c-.243.449-.36.98-.36 1.593 0 .594.117 1.121.36 1.579q.357.672.984 1.046c.426.243.898.36 1.422.36.55 0 1.023-.117 1.422-.36q.59-.357.906-1.046h1.187q-.44 1.095-1.359 1.687-.926.58-2.156.578-1.05.001-1.906-.484a3.6 3.6 0 0 1-1.36-1.375q-.502-.872-.5-1.985M108.854 21.767q-1.065.001-1.937-.485a3.6 3.6 0 0 1-1.36-1.375q-.502-.888-.5-2-.002-1.106.5-1.984a3.5 3.5 0 0 1 1.36-1.375 3.84 3.84 0 0 1 1.937-.5 3.77 3.77 0 0 1 1.922.5q.872.486 1.375 1.36.499.876.5 2c0 .742-.168 1.406-.5 2a3.63 3.63 0 0 1-1.375 1.374 3.84 3.84 0 0 1-1.922.485m0-.86c.52 0 .992-.117 1.422-.359q.638-.374 1-1.062.359-.687.36-1.579-.002-.92-.36-1.593a2.57 2.57 0 0 0-1-1.032 2.7 2.7 0 0 0-1.422-.375q-.815 0-1.437.375-.626.364-1 1.032c-.243.449-.36.98-.36 1.593 0 .594.117 1.121.36 1.579q.374.689 1 1.062.639.361 1.437.36M124.72 14.189v7.5h-.985v-5.594l-2.5 5.594h-.688l-2.5-5.61v5.61h-1v-7.5h1.063l2.781 6.203 2.781-6.203ZM137.164 14.189v7.5h-.985v-5.594l-2.5 5.594h-.687l-2.5-5.61v5.61h-1v-7.5h1.062l2.781 6.203 2.782-6.203Zm0 0"/></svg>